<svg xmlns="http://www.w3.org/2000/svg" version="1.1" xmlns:xlink="http://www.w3.org/1999/xlink" width="512" height="512" x="0" y="0" viewBox="0 0 800 800" style="enable-background:new 0 0 512 512" xml:space="preserve" class=""><g><path fill="#000000" d="M450 525c-6.4 0-12.8-2.4-17.7-7.3l-100-100c-9.8-9.8-9.8-25.6 0-35.4l100-100c9.8-9.8 25.6-9.8 35.4 0s9.8 25.6 0 35.4L385.4 400l82.3 82.3c9.8 9.8 9.8 25.6 0 35.4-4.9 4.9-11.3 7.3-17.7 7.3z" opacity="1" data-original="#1c274c" class=""></path><path fill="#000000" d="M400 758.3c-80.8 0-139.2 0-186.2-6.3-52.9-7.1-88.6-22.5-116-49.8-27.3-27.3-42.7-63.1-49.8-116-6.3-47-6.3-105.4-6.3-186.2s0-139.2 6.3-186.2c7.1-52.9 22.5-88.6 49.8-116s63.1-42.7 116-49.8c47-6.3 105.4-6.3 186.2-6.3s139.2 0 186.2 6.3c52.9 7.1 88.6 22.5 116 49.8 27.3 27.3 42.7 63.1 49.8 116 6.3 47 6.3 105.4 6.3 186.2s0 139.2-6.3 186.2c-7.1 52.9-22.5 88.6-49.8 116-27.3 27.3-63.1 42.7-116 49.8-47 6.3-105.4 6.3-186.2 6.3zm0-666.6c-150 0-225.3 0-266.8 41.5S91.7 250 91.7 400s0 225.3 41.5 266.8S250 708.3 400 708.3s225.3 0 266.8-41.5S708.3 550 708.3 400s0-225.3-41.5-266.8S550 91.7 400 91.7z" opacity="1" data-original="#8e93a6" class=""></path></g></svg>